<?xml version="1.0" encoding="utf-8"?>
<!-- Svg Vector Icons : http://www.onlinewebfonts.com/icon -->
<!DOCTYPE svg PUBLIC "-//W3C//DTD SVG 1.1//EN" "http://www.w3.org/Graphics/SVG/1.1/DTD/svg11.dtd">
<svg version="1.1" xmlns="http://www.w3.org/2000/svg" xmlns:xlink="http://www.w3.org/1999/xlink" x="0px" y="0px" viewBox="0 0 256 256" enable-background="new 0 0 256 256" xml:space="preserve">
<metadata> Svg Vector Icons : http://www.onlinewebfonts.com/icon </metadata>
<g><g><g><path fill="#000000" d="M21.1,10.2c-4.2,1-7.9,4.2-9.9,8.1L10,20.7v77.8v77.8l1.2,2.3c1.4,3,4.2,5.7,7.2,7.2l2.3,1.2h77.8h77.8l2.3-1.2c3-1.4,5.7-4.2,7.2-7.2l1.2-2.3V98.5V20.7l-1.2-2.3c-1.4-3-4.2-5.7-7.2-7.2l-2.3-1.2L99.4,10C57.1,10,21.9,10,21.1,10.2z M127.5,98.5c0,0.2-13.2,10.3-29.3,22.4l-29.3,22V98.5V54.2l29.3,22C114.3,88.2,127.5,98.3,127.5,98.5z"/><path fill="#000000" d="M201.9,120.6v81.3h-81.3H39.2l0.3,2.1c0.6,4.6,4,9.1,8.4,11.3l2.3,1.2H128h77.8l2.3-1.2c3-1.4,5.7-4.2,7.2-7.2l1.2-2.3V128V50.2l-1.2-2.3c-2.2-4.4-6.7-7.8-11.3-8.4l-2.1-0.3V120.6L201.9,120.6z"/><path fill="#000000" d="M231.5,150.2v81.3h-81.3H68.7l0.3,2.1c0.6,4.6,4,9.1,8.4,11.3l2.3,1.2h77.8h77.8l2.3-1.2c3-1.4,5.7-4.2,7.2-7.2l1.2-2.3v-77.8V79.8l-1.2-2.3c-2.2-4.4-6.7-7.8-11.3-8.4l-2.1-0.3V150.2z"/></g></g></g>
</svg>